P1
# Created by GIMP version 2.10.4 PNM plug-in
128 64
1111111111111111111111111111111111111111111111111111111111111111111111
1111111111111111111111111111111111111111111111111111111111100000011000
0001100000011000000110000001100000011000000110000001100000011000000110
0000011000000110000001100000011000000110000001101001011010010110100101
1010010110100101101001011010010110100101101001011010010110100101101001
0110100101101001011010010110100101100000011000000110000001100000011000
0001100000011000000110000001100000011000000110000001100000011000000110
0000011000000110000001100000011000000110000001100000011000000110000001
1000000110000001100000011000000110000001100000011000000110000001100000
0110000001101001011010010110100101101001011010010110100101101001011010
0101101001011010010110100101101001011010010110100101101001011010010110
0000011000000110000001100000011000000110000001100000011000000110000001
1000000110000001100000011000000110000001100000011000000111111110111111
1011111110111111101111111011111110111111101111111011111110111111101111
1110111111101111111011111110111111101111111011111111000000000000000000
0000001000000100000011100000000000000000000000000000101000000010000001
0000000000000000000000001111111110000001000000000000000000000000100100
0100000111000000000000000000000000000000001100000010000001000000000000
0000000000001000000110100101000000000000000000000000100000010000100000
0000000000000000000000000000000110000010001001000000000000000000000000
1010010110000001000001111110000110000000100000010001100000000000000000
0000000000000000000100000010000001000001111110011110000000100000011000
0001000001111110000110000000100000010000100000000000000000000000000000
0000000011000010000001000001111110011110000000100000011010010100000110
0000011110000000100000010100000000000000100000000000000000000000000101
0010000001000001100000000001100000101001011000000100000110000001111000
0000100000011110000000000000110000000000001010000000000011001000000100
0001100000000001100000100000011111111000000111100000011000000010000001
1100000000000001110000000000011111000000000001011000000100000111100000
0110000000111111101111111100000111100000011000000010000001100000000000
0111111111111111111111100000000000011100000100000111100000011000000011
1111111000000100000110000000011000000011000001000000000011100000000000
0000000000011100000000011000010100000110000001100000000010000001101001
0100000110000000011000000010000001000000001100011010101101111111111110
0011100000001000000100000110000001100000000010100101100000010000011000
0001111110000010000001000000001011111101011111111111111111110100000000
1000000100000110000001111110000010000001100000010000011000000111111000
0010000001000000111010101010101011011111111111110100000000100000010000
0110000001111110000010000001101001010000000000000000000000001000000100
0001101011110100010111111111111111110100000000100000010000000000000000
0000000010100101100000010000000000000000000000001000100100000001110110
1000001011111111110000101000000000100000110000000000000000000000001000
0001111111100001100000000000000010001000000100000000010011010001011011
1111000100101000000000100000010000110000000000000000001111111011111111
0010000000000100000111001000000100000000010110101010101111111000000110
1000000000100000010000010000000000000000001111111110000001000100110001
0001100010001000000100000000001011110101111111110001000101000000000010
0000010000010101001010011000001000000110100101000010101010010101001000
1000000100000000001010101010101101110110001101000000000010000001000001
0101010101010100001010010110000001001100110010010101001000100001010000
0000000101110111111111100000011011100000000010000001000010001001000101
1000001000000110000001000000100000000000000000100000010000000000001011
1101111111101001110111100000000010000001000000000000000001000000100000
0110100101000000100000000000000000100000010000000000000100111110111110
1111001001100000000010100001000000000000000000000000101001011000000100
0000000000000000000000100000010000000000001011000111111111100011000000
0000000010000001000000000000000000000000100000011111111011101010111111
0000000011100000010000000000000000111000000000011100000000000000001000
0001111111000001010011111011111111101111111111110011110000100000000110
0000010000000011111111111111111111111111111111000000001000000101101110
0000011000001100111111111000000100000000000000000000000010000001000000
0010000001100000011000000110000001000000001000000100000000000000000000
0000100000011010010100000000000000000000000010000001000000001010010110
1001011010010110100101000000001000000100000000000000000000000010100101
1000000100000000000000000000000011000001000000001000000110000001100000
0110000001000000001000000100000000000000000000000010000001100000010000
0000000000000000000010000001000000001000000110000001100000011000000100
0000001010000100000000000000000000000010000001101001010000000000000000
0000000010000101000000001010010110100101101001011010010100000000100000
0100000000000000000000000010100101100000010000000000000000000000001000
0001000000001000000110000001100000011000000100000000100001010000000000
0000000000000010000001111111100000000000000000000000001000000100000000
1111111011111110111111101111111000000000100000010000000000000000000000
0011111110111111110000000000000000000000001111111100000000000001111100
0011100000001111000000000000111111110000000000000000000000001111111110
0000010000000000000000000000001000000100000000000001110000001100000000
0010000000000000100000010000000000000000000000001000000110100101000000
0000000000000000001010010100000000000000100000000100000000000000000000
0000101001010000000000000000000000001010010110000001000000000000000000
0000001000000100000000000000000000000000000000000000000000000010000001
0000000000000000000000001000000110000001000000000000000000000000100000
0100000000000000000000000000000000000000000000000010000001000000000000
0000000000001000000110100101000000000000000000000000101001010000000000
0000000000000100000000000000000000000010100101000000000000000000000000
1010010110000001000000000000000000000000100000010000000000000000000000
1111000000000000000000000010000001000000000000000000000000100000011111
1110000000000000000000000000111111100000000000000000000001001010000000
0000000000000011111110000000000000000000000000111111101111111100111100
0000000011111111111111110000000000000000010010001001000000000000000000
0011111111111111110000000000000000000000001000000101100110000000001000
0001100000010000000000000001111010001001110000000000000000001000000110
0000010000000000000000000000001010010111010011000000001010010110100101
0000000000000001001010010001100000000000000000001010010110100101000000
0000000000000000001000000111001011000000001000000110000001000000000000
0001101010010001000000000000000000001000000110000001000000000000000000
0000001000000111000011000000001000000110000001000000000000000101101001
0001000000000000000000001000000110000001000000000000000000000000101001
0111011011000000001010010110100101110000000000000011001000100100000000
0000000000011010010110100101000000000000000000000000100000011111111100
0000001000000110000001101000000000000010011000100100000000000000000110
1000000110000001000000000000000000000000111111101110011100000000111111
1011111110111100000000000000111000100110000000000000001101111111101111
1110000000000000000000000000111111111111111111111111111111111111111111
1111111111111111111111111111111111111111111111111111111111111111111111
1111111111111111100000011000000110000001100000011000000110000001100000
0110000001100000011000000110000001100000011000000110000001100000011000
0001101001011010010110100101101001011010010110100101101001011010010110
1001011010010110100101101001011010010110100101101001011010010110000001
1000000110000001100000011000000110000001100000011000000110000001100000
0110000001100000011000000110000001100000011000000110000001100000011000
0001100000011000000110000001100000011000000110000001100000011000000110
0000011000000110000001100000011000000110100101101001011010010110100101
1010010110100101101001011010010110100101101001011010010110100101101001
0110100101101001011010010110000001100000011000000110000001100000011000
0001100000011000000110000001100000011000000110000001100000011000000110
0000011000000111111110111111101111111011111110111111101111111011111110
1111111011111110111111101111111011111110111111101111111011111110111111
10